<svg width="76" height="29" viewBox="0 0 76 29" fill="none" xmlns="http://www.w3.org/2000/svg">
<g id="astra">
<path id="Vector" fill-rule="evenodd" clip-rule="evenodd" d="M41.8341 0.639716C41.8351 0.827203 41.8885 2.04438 41.9524 3.3449C42.0167 4.64541 42.0698 5.86222 42.0708 6.0489L42.0726 6.38823L44.2624 6.40961L46.4522 6.43078L45.9772 8.1942C45.7165 9.16411 45.4945 9.96652 45.4843 9.97741C45.4744 9.98847 44.8663 9.87642 44.133 9.72871L42.8002 9.46008L42.7588 9.78892C42.7362 9.96988 42.516 13.6166 42.2698 17.8928L41.822 25.6676L41.3588 26.4291C40.5701 27.724 40.0319 28.5832 40.0185 28.568C40.0118 28.5597 39.6047 27.9089 39.1146 27.1214L38.2234 25.6896L37.787 18.2244C37.5467 14.1185 37.328 10.4672 37.3008 10.1102L37.2513 9.46125L35.9212 9.72931C35.1897 9.87681 34.578 9.98412 34.5619 9.9679C34.5457 9.95182 34.3386 9.21478 34.1014 8.33C33.8646 7.44521 33.6471 6.647 33.618 6.55612C33.566 6.39177 33.5795 6.39081 35.7612 6.39081H37.9573L38.0531 4.00615C38.1057 2.69474 38.1711 1.32413 38.1983 0.960442L38.2474 0.299194H40.0397H41.8319L41.8341 0.639716ZM14.6738 10.6388C14.8532 11.3161 14.8544 11.3612 14.8803 18.186L14.9064 25.0519L14.4828 25.1433C5.02236 27.1823 0.0750732 25.3946 0.0750732 19.9367C0.0750732 15.2218 4.31793 12.7354 10.9259 13.578L11.3195 13.6283L11.268 12.7948C11.1563 10.9893 10.6976 10.1241 9.57032 9.59274C8.0663 8.88375 5.3506 8.96333 2.42528 9.80235C2.11247 9.89207 1.52487 7.96098 1.60802 7.11637C1.67474 6.43968 6.30864 5.76815 8.81108 6.07264C12.0795 6.47021 13.9571 7.93264 14.6738 10.6388ZM74.9176 10.6388C75.0968 11.3161 75.0982 11.3612 75.124 18.186L75.1501 25.0519L74.7265 25.1433C65.2662 27.1823 60.3188 25.3946 60.3188 19.9367C60.3188 15.2218 64.5616 12.7354 71.1695 13.578L71.5632 13.6283L71.5119 12.7948C71.3999 10.9893 70.9416 10.1241 69.814 9.59274C68.3101 8.88375 65.5945 8.96333 62.669 9.80235C62.3559 9.89207 61.7687 7.96098 61.8517 7.11637C61.9185 6.43968 66.5525 5.76815 69.0546 6.07264C72.3232 6.47021 74.2007 7.93264 74.9176 10.6388ZM31.116 6.94771C31.2611 7.08492 30.7032 9.33019 30.4318 9.70143C30.3339 9.83483 30.3045 9.83362 29.8485 9.67624C25.4449 8.156 21.8638 9.21775 22.6349 11.815C22.9216 12.7802 23.6015 13.2106 26.2823 14.1239C30.0227 15.3982 31.2152 16.4099 31.622 18.6542C32.6386 24.2607 26.7787 27.388 19.1086 25.3318C18.6678 25.2137 18.2963 25.1097 18.2832 25.101C18.1628 25.022 18.9264 22.2911 19.1238 22.0935C19.1606 22.0569 19.4428 22.1186 19.7508 22.2311C23.8038 23.7104 27.9655 22.6284 27.9655 20.0955C27.9655 18.6689 27.2734 17.967 25.1202 17.21C19.9434 15.3899 18.5871 14.105 18.772 11.1953C19.0096 7.46147 22.2827 5.51631 27.3876 6.07522C28.5143 6.19855 30.919 6.76124 31.116 6.94771ZM52.1692 6.43615C52.253 6.52011 52.4477 7.74062 52.5374 8.74753L52.594 9.38107L52.7636 9.10351C53.489 7.91801 54.8117 6.91662 56.1548 6.53612C56.7679 6.36251 58.8831 6.26229 59.0213 6.40032C59.1721 6.55096 59.2432 7.92575 59.1467 8.82099L59.046 9.75723H58.0492C55.7442 9.75723 54.3632 10.4945 53.547 12.1619C52.8434 13.597 52.865 13.3745 52.8159 19.8108L52.7731 25.496L52.5325 25.5641C52.212 25.6551 50.2663 25.6773 49.5868 25.5979L49.0455 25.5346L49.066 15.9827L49.0858 6.43078L49.4066 6.37735C49.8762 6.29915 52.0787 6.34608 52.1692 6.43615ZM10.914 16.8615L11.2155 16.9086L11.1945 19.6794L11.1733 22.45L10.9461 22.5108C9.99856 22.764 7.2506 22.83 6.34624 22.6211C3.52029 21.9682 3.39437 18.0868 6.16648 17.0876C7.09123 16.7542 9.49509 16.6398 10.914 16.8615ZM71.1575 16.8615L71.4593 16.9086L71.4384 19.6794L71.4172 22.45L71.19 22.5108C70.2423 22.764 67.4945 22.83 66.5899 22.6211C63.7641 21.9682 63.6383 18.0868 66.4104 17.0876C67.3352 16.7542 69.7388 16.6398 71.1575 16.8615Z" fill="#7E7E7E"/>
</g>
</svg>
