<svg width="76" height="30" viewBox="0 0 76 30" fill="none" xmlns="http://www.w3.org/2000/svg">
<path fill-rule="evenodd" clip-rule="evenodd" d="M41.759 1.17109C41.76 1.35857 41.8134 2.57575 41.8774 3.87627C41.9417 5.17679 41.9947 6.39359 41.9957 6.58027L41.9975 6.91961L44.1873 6.94098L46.3771 6.96215L45.9022 8.72557C45.6414 9.69548 45.4195 10.4979 45.4092 10.5088C45.3993 10.5198 44.7912 10.4078 44.058 10.2601L42.7251 9.99146L42.6837 10.3203C42.6611 10.5013 42.441 14.148 42.1947 18.4241L41.747 26.199L41.2837 26.9604C40.495 28.2554 39.9568 29.1146 39.9434 29.0994C39.9367 29.091 39.5296 28.4403 39.0395 27.6527L38.1483 26.2209L37.7119 18.7558C37.4716 14.6499 37.2529 10.9985 37.2257 10.6416L37.1762 9.99262L35.8462 10.2607C35.1146 10.4082 34.5029 10.5155 34.4868 10.4993C34.4706 10.4832 34.2635 9.74615 34.0263 8.86137C33.7895 7.97658 33.572 7.17837 33.5429 7.08749C33.4909 6.92314 33.5045 6.92218 35.6861 6.92218H37.8822L37.978 4.53752C38.0307 3.22611 38.096 1.8555 38.1232 1.49181L38.1724 0.830566H39.9646H41.7569L41.759 1.17109ZM14.5988 11.1702C14.7781 11.8475 14.7793 11.8926 14.8052 18.7174L14.8314 25.5833L14.4077 25.6747C4.94729 27.7137 0 25.926 0 20.4681C0 15.7532 4.24286 13.2668 10.8508 14.1094L11.2444 14.1597L11.1929 13.3262C11.0813 11.5206 10.6225 10.6555 9.49524 10.1241C7.99123 9.41512 5.27553 9.4947 2.35021 10.3337C2.0374 10.4234 1.4498 8.49235 1.53295 7.64774C1.59967 6.97105 6.23356 6.29952 8.73601 6.60402C12.0044 7.00159 13.8821 8.46401 14.5988 11.1702ZM74.8426 11.1702C75.0217 11.8475 75.0231 11.8926 75.0489 18.7174L75.0751 25.5833L74.6514 25.6747C65.1912 27.7137 60.2437 25.926 60.2437 20.4681C60.2437 15.7532 64.4866 13.2668 71.0944 14.1094L71.4881 14.1597L71.4369 13.3262C71.3248 11.5206 70.8665 10.6555 69.7389 10.1241C68.235 9.41512 65.5194 9.4947 62.594 10.3337C62.2809 10.4234 61.6936 8.49235 61.7766 7.64774C61.8434 6.97105 66.4774 6.29952 68.9796 6.60402C72.2482 7.00159 74.1256 8.46401 74.8426 11.1702ZM31.0409 7.47908C31.186 7.61629 30.6281 9.86156 30.3567 10.2328C30.2589 10.3662 30.2294 10.365 29.7734 10.2076C25.3698 8.68737 21.7887 9.74912 22.5599 12.3464C22.8465 13.3115 23.5264 13.7419 26.2072 14.6552C29.9477 15.9296 31.1401 16.9413 31.5469 19.1856C32.5635 24.7921 26.7036 27.9194 19.0335 25.8632C18.5928 25.745 18.2212 25.6411 18.2081 25.6323C18.0877 25.5534 18.8513 22.8224 19.0487 22.6249C19.0855 22.5882 19.3677 22.65 19.6757 22.7624C23.7288 24.2418 27.8905 23.1598 27.8905 20.6269C27.8905 19.2002 27.1983 18.4984 25.0451 17.7413C19.8683 15.9213 18.512 14.6364 18.6969 11.7267C18.9345 7.99284 22.2077 6.04768 27.3126 6.6066C28.4393 6.72992 30.8439 7.29261 31.0409 7.47908ZM52.0941 6.96752C52.1779 7.05148 52.3726 8.27199 52.4623 9.2789L52.5189 9.91245L52.6885 9.63488C53.4139 8.44938 54.7366 7.44799 56.0797 7.06749C56.6928 6.89388 58.808 6.79367 58.9462 6.93169C59.0971 7.08233 59.1681 8.45712 59.0716 9.35237L58.9709 10.2886H57.9741C55.6691 10.2886 54.2882 11.0259 53.4719 12.6933C52.7683 14.1284 52.7899 13.9059 52.7408 20.3422L52.698 26.0273L52.4574 26.0954C52.1369 26.1865 50.1913 26.2087 49.5118 26.1293L48.9704 26.066L48.9909 16.514L49.0107 6.96215L49.3315 6.90872C49.8012 6.83052 52.0037 6.87745 52.0941 6.96752ZM10.8389 17.3929L11.1405 17.44L11.1195 20.2107L11.0983 22.9814L10.871 23.0422C9.92348 23.2954 7.17552 23.3614 6.27116 23.1525C3.44522 22.4995 3.3193 18.6182 6.09141 17.619C7.01616 17.2856 9.42001 17.1712 10.8389 17.3929ZM71.0824 17.3929L71.3842 17.44L71.3634 20.2107L71.3422 22.9814L71.1149 23.0422C70.1672 23.2954 67.4195 23.3614 66.5149 23.1525C63.689 22.4995 63.5632 18.6182 66.3354 17.619C67.2601 17.2856 69.6637 17.1712 71.0824 17.3929Z" fill="#7E7E7E"/>
</svg>
