<svg width="156" height="43" viewBox="0 0 156 43" fill="none" xmlns="http://www.w3.org/2000/svg">
<g clip-path="url(#clip0_201_4887)">
<path d="M155.994 28.0062H153.477V22.2867L153.28 22.196C151.943 24.0763 150.605 25.9566 149.216 27.9094C147.897 26.0987 146.632 24.3635 145.249 22.462V27.9669H142.613V14.3181C144.888 17.5286 147.042 20.5666 149.258 23.6954C151.509 20.5938 153.704 17.5709 156 14.4028V28.0062H155.994Z" fill="#7E7E7E"/>
<path d="M107.727 14.8988C109.807 15.0227 111.815 14.6388 113.765 15.2675C116.246 16.0656 116.91 18.8286 115.094 20.6968C114.963 20.8298 114.781 20.9296 114.754 21.1866C115.515 21.6823 116.246 22.2386 116.525 23.1907C117.241 25.6213 115.797 27.7011 113.022 27.9671C111.287 28.1334 109.522 27.9973 107.727 27.9973V14.8988ZM110.429 25.5336C111.324 25.585 112.133 25.6484 112.934 25.3945C113.541 25.2011 113.907 24.8262 113.917 24.1612C113.926 23.4689 113.502 23.1363 112.904 22.958C112.106 22.7222 111.3 22.7706 110.429 22.8462V25.5366V25.5336ZM110.423 20.2796C111.399 20.2131 112.412 20.5759 113.083 19.5904C113.416 19.1007 113.477 18.5323 113.064 18.0638C112.319 17.2204 111.333 17.5075 110.423 17.5015V20.2766V20.2796Z" fill="#7E7E7E"/>
<path d="M62.9684 27.976V14.9107C64.9792 15.0044 66.993 14.6296 68.934 15.2463C71.5698 16.0867 72.1759 18.8677 70.2109 20.8267C70.1198 20.9204 70.0441 21.0292 69.9591 21.132C71.773 22.3412 72.3426 23.4959 71.6514 25.6906C71.1723 27.2112 69.8287 27.8188 68.4033 27.9397C66.6139 28.0908 64.8033 27.976 62.9684 27.976ZM65.6403 22.8158V25.5365C66.526 25.5908 67.366 25.6604 68.1879 25.3943C68.7885 25.2009 69.1797 24.8019 69.1797 24.1459C69.1797 23.5171 68.7854 23.1634 68.2122 22.976C67.3873 22.7069 66.5441 22.8007 65.6403 22.8158ZM65.6222 20.3218C66.6351 20.1646 67.7179 20.6302 68.3638 19.5328C68.6277 19.0854 68.6762 18.5564 68.3547 18.1392C67.6329 17.2021 66.6017 17.5195 65.6222 17.5014V20.3218Z" fill="#7E7E7E"/>
<path d="M128.117 27.9972H118.964V14.9651H127.826C127.974 15.7813 127.896 16.5824 127.877 17.453H121.645V20.1828H127.107C127.247 21.0564 127.183 21.8575 127.159 22.7251H121.657V25.4004H128.075C128.19 26.2741 128.132 27.1054 128.117 27.9942V27.9972Z" fill="#7E7E7E"/>
<path d="M105.097 17.4951H98.8281V20.1946H104.372V22.743H98.8367V25.4062H105.318V27.9757H96.2562V14.9739H105.1V17.4951H105.097Z" fill="#7E7E7E"/>
<path d="M137.96 27.9944C137.623 27.1752 137.281 26.3468 136.929 25.4883H132.774C132.264 26.235 132.073 27.1631 131.606 28.0065H128.995C130.978 23.4538 132.934 18.9617 134.891 14.4696L135.13 14.4514C137.086 18.9406 139.042 23.4296 141.032 27.9974H137.957L137.96 27.9944ZM134.881 20.2767C134.411 21.3892 134.041 22.2719 133.662 23.1667H136.025C135.655 22.2356 135.318 21.3831 134.878 20.2767H134.881Z" fill="#7E7E7E"/>
<path d="M79.4899 28.0034H76.8966C76.8966 27.4531 76.8386 26.9272 76.9059 26.4223C77.1327 24.7053 76.5445 23.2422 75.6987 21.7851C74.4943 19.7083 73.4145 17.562 72.2774 15.4459C72.2108 15.3249 72.1257 15.2192 72.2015 14.9259C73.1204 14.9259 74.0914 14.9108 75.0589 14.935C75.3316 14.941 75.4196 15.2131 75.5348 15.4429C76.3169 17.0329 77.1148 18.614 77.9091 20.198C78.0036 20.3824 78.1066 20.5638 78.2583 20.8449C79.2502 18.8226 80.1905 16.9 81.1272 14.9864H84.406C83.9967 15.727 83.6418 16.3588 83.2961 16.9967C82.1891 19.0342 81.1093 21.0838 79.9686 23.1C79.6173 23.7228 79.4563 24.3364 79.4806 25.0439C79.5135 26.0233 79.4899 27.0028 79.4899 28.0094V28.0034Z" fill="#7E7E7E"/>
<path d="M90.8579 27.997H88.1437V17.4922H85.1897V14.9619H93.9543C94.1547 15.7751 93.988 16.5611 94.0695 17.4347H90.8579V27.997Z" fill="#7E7E7E"/>
<path d="M50.0573 11.0596L28.6727 0.660522L38.7478 13.3571L50.0573 11.0596Z" fill="#7E7E7E"/>
<path d="M50.0573 31.268L28.6727 41.667L38.7478 28.9705L50.0573 31.268Z" fill="#7E7E7E"/>
<path d="M38.7477 13.3574L45.1105 21.196L38.7477 28.953L0 21.1567L38.7477 13.3574Z" fill="#7E7E7E"/>
</g>
<defs>
<clipPath id="clip0_201_4887">
<rect width="156" height="41.5046" fill="white" transform="translate(0 0.660522)"/>
</clipPath>
</defs>
</svg>
