<svg width="100" height="37" viewBox="0 0 100 37" fill="none" xmlns="http://www.w3.org/2000/svg">
<g id="dhan" clip-path="url(#clip0_180_6274)">
<path id="Vector" d="M17.5781 36.0118C27.2862 36.0118 35.1562 28.1418 35.1562 18.4337C35.1562 8.72559 27.2862 0.855591 17.5781 0.855591C7.87 0.855591 0 8.72559 0 18.4337C0 28.1418 7.87 36.0118 17.5781 36.0118Z" fill="url(#paint0_linear_180_6274)"/>
<path id="Vector_2" fill-rule="evenodd" clip-rule="evenodd" d="M25.5509 34.0935L11.7159 23.3867L13.6695 18.4308L10.3638 13.9253L11.7159 9.87048H25.6883L35.1535 18.4746C35.1368 25.2902 31.2381 31.1939 25.5509 34.0935Z" fill="#7E7E7E"/>
<path id="Vector_3" d="M27.037 12.3317H23.0273V28.1621C22.3734 28.1621 21.7293 28.0371 21.0947 27.7872C20.46 27.5565 20.1427 27.2874 20.1427 26.9798V23.5485C18.7966 24.3944 17.335 24.8172 15.7581 24.8172C14.1811 24.8172 12.8927 24.4135 11.8927 23.6061C10.912 22.7796 10.4216 21.7127 10.4216 20.4055C10.4216 19.406 10.7677 18.5121 11.46 17.7239C10.4793 17.3586 9.7004 16.8203 9.12345 16.109C8.54657 15.3786 8.25806 14.5135 8.25806 13.514C8.25806 12.5144 8.66196 11.6013 9.46962 10.7746C10.2966 9.94807 11.4216 9.53479 12.8447 9.53479C13.8831 9.53479 14.6811 9.76542 15.2389 10.2268C15.8158 10.6881 16.1043 11.2552 16.1043 11.9281C16.1043 13.2929 15.2195 14.254 13.4505 14.8115C13.162 14.5809 12.9504 14.254 12.8158 13.8312C13.6041 13.3121 13.9985 12.7643 13.9985 12.1875C13.9985 11.8607 13.9023 11.6013 13.71 11.409C13.5177 11.1975 13.21 11.0918 12.787 11.0918C12.3638 11.0918 11.9504 11.3226 11.5466 11.7839C11.1427 12.2453 10.9408 12.8507 10.9408 13.6004C10.9408 14.331 11.1427 14.946 11.5466 15.446C11.9696 15.9264 12.4984 16.2629 13.1331 16.4551C13.9792 16.0323 14.9311 15.7151 15.9889 15.5035C16.7196 16.1956 17.1811 16.9164 17.3735 17.6661C16.1811 17.8968 15.1716 18.2621 14.3447 18.762C13.537 19.2425 13.1331 19.8 13.1331 20.4343C13.1331 21.0495 13.3446 21.5492 13.7677 21.9338C14.21 22.3182 14.835 22.5104 15.6427 22.5104C16.4695 22.5104 17.287 22.2798 18.0947 21.8184C18.9024 21.357 19.585 20.7515 20.1427 20.0017V12.3317H18.1523C17.46 11.5243 17.1139 10.6689 17.1139 9.76542H26.1427C26.7388 10.5343 27.037 11.3898 27.037 12.3317Z" fill="white"/>
<path id="Vector_4" d="M48.4296 13.495C49.1999 13.495 49.8847 13.6663 50.4838 14.0086C51.0832 14.3433 51.5694 14.8102 51.9431 15.4094V9.33948H55.3167V26.5221H52.083V24.7595C51.6084 25.5143 51.0677 26.0629 50.4605 26.4053C49.8534 26.7478 49.0987 26.9189 48.1962 26.9189C46.7098 26.9189 45.4568 26.3197 44.4373 25.1213C43.4258 23.9151 42.9199 22.3704 42.9199 20.4871C42.9199 18.316 43.4177 16.6078 44.4141 15.3627C45.4178 14.1176 46.7566 13.495 48.4296 13.495ZM49.1531 24.1174C50.095 24.1174 50.8108 23.7673 51.3012 23.0669C51.7912 22.3665 52.0362 21.4599 52.0362 20.3471C52.0362 18.7906 51.6436 17.6778 50.8575 17.0086C50.3752 16.6039 49.8148 16.4016 49.1767 16.4016C48.2039 16.4016 47.4878 16.7713 47.0287 17.5106C46.5773 18.2421 46.3519 19.1525 46.3519 20.242C46.3519 21.4171 46.5814 22.3587 47.0402 23.0669C47.5074 23.7673 48.2116 24.1174 49.1531 24.1174ZM65.3668 13.4717C66.1529 13.4717 66.8648 13.6079 67.5033 13.8803C68.1491 14.1526 68.6782 14.5689 69.0906 15.1292C69.4408 15.6039 69.6548 16.0942 69.7325 16.6C69.8105 17.0981 69.8492 17.9152 69.8492 19.0514V26.5221H66.4525V18.7829C66.4525 18.0981 66.3358 17.5456 66.1023 17.1253C65.7989 16.5339 65.223 16.2381 64.3748 16.2381C63.4955 16.2381 62.8261 16.5339 62.367 17.1253C61.9155 17.7089 61.6898 18.5456 61.6898 19.635V26.5221H58.3749V9.37448H61.6898V15.4561C62.1725 14.7168 62.7291 14.2031 63.3591 13.9153C63.9975 13.6196 64.6665 13.4717 65.3668 13.4717ZM79.9812 20.3354C79.7711 20.4677 79.557 20.5766 79.3398 20.6622C79.1297 20.7401 78.8375 20.814 78.4641 20.884L77.7169 21.0241C77.0166 21.1486 76.5145 21.3003 76.2112 21.4793C75.6975 21.7828 75.4409 22.2536 75.4409 22.8917C75.4409 23.4599 75.5963 23.8723 75.9077 24.1291C76.2266 24.3781 76.612 24.5027 77.0633 24.5027C77.7791 24.5027 78.4367 24.2925 79.0359 23.8723C79.643 23.4521 79.9578 22.6856 79.9812 21.5728V20.3354ZM77.9623 18.7829C78.5766 18.7051 79.0164 18.6078 79.2813 18.491C79.7563 18.2887 79.993 17.9735 79.993 17.5456C79.993 17.0242 79.8102 16.6662 79.4445 16.4717C79.0867 16.2693 78.5578 16.1681 77.8571 16.1681C77.071 16.1681 76.5145 16.3627 76.1879 16.7518C75.9545 17.0397 75.7987 17.4289 75.7211 17.9191H72.5109C72.5809 16.8063 72.892 15.8919 73.4447 15.176C74.324 14.0553 75.8339 13.495 77.9738 13.495C79.3664 13.495 80.6039 13.7713 81.6859 14.3238C82.7672 14.8764 83.3086 15.9191 83.3086 17.4522V23.2886C83.3086 23.6933 83.3164 24.1836 83.332 24.7595C83.3547 25.1953 83.4211 25.491 83.5297 25.6466C83.6391 25.8022 83.8023 25.9307 84.0203 26.0318V26.5221H80.4016C80.3008 26.2653 80.2305 26.024 80.1914 25.7984C80.1531 25.5727 80.1219 25.3159 80.0984 25.0279C79.6391 25.526 79.1102 25.9501 78.5109 26.3003C77.7949 26.7128 76.9856 26.9189 76.0828 26.9189C74.9311 26.9189 73.9777 26.5921 73.2229 25.9384C72.4758 25.277 72.1024 24.3431 72.1024 23.1369C72.1024 21.5728 72.7054 20.4405 73.9116 19.7401C74.5732 19.3588 75.5459 19.0864 76.8299 18.923L77.9623 18.7829ZM93.3234 13.495C94.6391 13.495 95.7125 13.8414 96.5453 14.5339C97.3859 15.2188 97.8063 16.3588 97.8063 17.9541V26.5221H94.3977V18.7829C94.3977 18.1136 94.3078 17.6 94.1289 17.2421C93.8023 16.5884 93.1797 16.2615 92.2617 16.2615C91.1336 16.2615 90.3586 16.7401 89.9383 17.6973C89.7203 18.2031 89.6117 18.849 89.6117 19.635V26.5221H86.2969V13.8219H89.5063V15.6779C89.9344 15.0242 90.3391 14.5534 90.7211 14.2654C91.4055 13.7518 92.2734 13.495 93.3234 13.495Z" fill="#7E7E7E"/>
</g>
<defs>
<linearGradient id="paint0_linear_180_6274" x1="23.8281" y1="49.6837" x2="20.4081" y2="0.377736" gradientUnits="userSpaceOnUse">
<stop stop-color="#7E7E7E"/>
<stop offset="1" stop-color="#7E7E7E"/>
</linearGradient>
<clipPath id="clip0_180_6274">
<rect width="100" height="35.1562" fill="white" transform="translate(0 0.855591)"/>
</clipPath>
</defs>
</svg>
