<svg width="168" height="36" viewBox="0 0 168 36" fill="none" xmlns="http://www.w3.org/2000/svg">
<mask id="mask0_116_4450" style="mask-type:luminance" maskUnits="userSpaceOnUse" x="0" y="0" width="168" height="36">
<path d="M168 0.570312H0.0749512V35.3597H168V0.570312Z" fill="#7E7E7E"/>
</mask>
<g mask="url(#mask0_116_4450)">
<path d="M41.1217 0.570312H22.3855L35.8283 17.6768L22.3855 34.7834H41.1217L54.563 17.6768L41.1217 0.570312Z" fill="#7E7E7E"/>
<path d="M27.0258 17.64C27.0258 8.48125 19.7267 0.822986 10.6276 0.570312H0.0749512V34.782H10.6276C19.7267 34.5293 27.0258 26.8 27.0258 17.64Z" fill="#7E7E7E"/>
<path d="M61.3909 0.640625H71.0776C77.8671 0.640625 82.5202 4.59113 82.5202 10.8838C82.5202 17.1765 77.8671 21.127 71.0776 21.127H61.3909V0.640625ZM70.8432 16.5022C74.3264 16.5022 76.666 14.4241 76.666 10.8838C76.666 7.34358 74.3238 5.26539 70.8432 5.26539H67.185V16.5037H70.8432V16.5022Z" fill="#7E7E7E"/>
<path d="M103.275 0.640625V21.1256H97.4805V13.1366H89.5794V21.1256H83.7852V0.640625H89.5794V8.33721H97.4805V0.640625H103.275Z" fill="#7E7E7E"/>
<path d="M113.901 15.6818H110.741V21.1256H104.947V0.640625H114.312C119.902 0.640625 123.413 3.53784 123.413 8.2194C123.413 11.233 121.95 13.4589 119.404 14.6867L123.823 21.1242H117.618L113.901 15.6804V15.6818ZM113.961 5.20577H110.741V11.2046H113.961C116.36 11.2046 117.561 10.0917 117.561 8.2194C117.561 6.34708 116.36 5.20577 113.961 5.20577Z" fill="#7E7E7E"/>
<path d="M124.512 11.5841V0.710693H130.307V11.4095C130.307 14.9215 131.77 16.3267 134.199 16.3267C136.628 16.3267 138.061 14.9215 138.061 11.4095V0.710693H143.768V11.5856C143.768 17.7023 140.198 21.1262 134.139 21.1262C128.081 21.1262 124.511 17.7023 124.511 11.5856L124.512 11.5841Z" fill="#7E7E7E"/>
<path d="M168.001 0.640625L159.221 21.1256H153.515L144.762 0.640625H151.027L156.587 13.9854L162.265 0.640625H168.001Z" fill="#7E7E7E"/>
<path d="M63.5883 33.474V27.4695H64.4767V33.474H63.5883ZM61.574 27.6512V26.8535H66.4897V27.6512H61.574ZM68.01 33.474V28.6307H68.6997V30.6265H68.6632C68.6632 29.9196 68.8176 29.4015 69.1259 29.075C69.4394 28.7428 69.9091 28.5767 70.5309 28.5767H70.6945V29.356H70.3861C69.9021 29.356 69.5303 29.4867 69.2707 29.7464C69.0107 30.0005 68.8802 30.3695 68.8802 30.8537V33.4755H68.01V33.474ZM74.1338 33.6188C73.5589 33.6188 73.1175 33.4315 72.8092 33.0567C72.5013 32.682 72.3465 32.1411 72.3465 31.4328V28.6208H73.2167V31.6045C73.2167 31.985 73.3189 32.2845 73.525 32.5032C73.7307 32.7146 74.009 32.821 74.3595 32.821C74.71 32.821 75.0179 32.7061 75.248 32.4761C75.478 32.2405 75.5932 31.9197 75.5932 31.5151V28.6222H76.4634V33.4755H75.7733V31.3987H75.8824C75.8824 31.8757 75.8185 32.2817 75.6924 32.6138C75.5658 32.9404 75.3745 33.1915 75.1205 33.3662C74.8718 33.5351 74.5552 33.6202 74.1677 33.6202H74.1308L74.1338 33.6188ZM78.9317 33.474V26.852H79.8019V33.474H78.9317ZM78.2603 27.542V26.852H79.8019V27.542H78.2603ZM81.8714 35.3605V34.5799H82.5698C82.776 34.5799 82.9477 34.5529 83.0869 34.4989C83.2313 34.4507 83.3491 34.3656 83.44 34.2448C83.5365 34.1243 83.6161 33.9637 83.6757 33.7636L85.2003 28.6293H86.0536L84.4393 33.9907C84.3428 34.3115 84.2067 34.5714 84.0305 34.77C83.8562 34.9759 83.6405 35.1235 83.3861 35.2144C83.1378 35.3109 82.8481 35.3591 82.5159 35.3591H81.8714V35.3605ZM83.3504 33.3648V32.6394H84.4024V33.3648H83.3504ZM83.26 33.3648L81.5279 28.6293H82.4167L84.0762 33.3648H83.26ZM92.0891 33.474V27.4695H92.9779V33.474H92.0891ZM90.0748 27.6512V26.8535H94.9905V27.6512H90.0748ZM96.5108 33.474V28.6307H97.2009V30.6265H97.164C97.164 29.9196 97.3188 29.4015 97.6267 29.075C97.942 28.7428 98.4103 28.5767 99.0335 28.5767H99.1966V29.356H98.8887C98.4047 29.356 98.0328 29.4867 97.7728 29.7464C97.5132 30.0005 97.3827 30.3695 97.3827 30.8537V33.4755H96.5126L96.5108 33.474ZM103.87 33.474V32.0233H103.725V30.3454C103.725 30.0133 103.637 29.762 103.462 29.5931C103.293 29.4242 103.042 29.3391 102.71 29.3391C102.522 29.3391 102.329 29.3418 102.129 29.3475C101.929 29.3532 101.739 29.3603 101.557 29.366C101.376 29.3717 101.218 29.3816 101.086 29.393V28.6307C101.22 28.6179 101.359 28.6094 101.504 28.6037C101.654 28.591 101.809 28.5853 101.966 28.5853C102.124 28.5796 102.274 28.5767 102.419 28.5767C102.914 28.5767 103.32 28.6378 103.634 28.7584C103.949 28.8735 104.182 29.0637 104.332 29.3305C104.483 29.5959 104.56 29.9565 104.56 30.4093V33.4755H103.87V33.474ZM102.283 33.6018C101.919 33.6018 101.606 33.5408 101.339 33.4201C101.079 33.2923 100.876 33.1121 100.731 32.8764C100.592 32.6408 100.522 32.357 100.522 32.0233C100.522 31.6897 100.598 31.3916 100.749 31.1617C100.907 30.9317 101.134 30.76 101.43 30.645C101.726 30.5243 102.082 30.4632 102.5 30.4632H103.816V31.1162H102.465C102.114 31.1162 101.844 31.2015 101.657 31.3703C101.469 31.5393 101.376 31.7579 101.376 32.0233C101.376 32.2888 101.469 32.5045 101.657 32.6677C101.844 32.831 102.114 32.9133 102.465 32.9133C102.67 32.9133 102.866 32.8764 103.053 32.8041C103.241 32.7259 103.396 32.5983 103.516 32.4236C103.644 32.2419 103.712 31.9949 103.725 31.6798L103.961 32.0247C103.931 32.3697 103.846 32.6593 103.707 32.8949C103.573 33.1248 103.386 33.2995 103.144 33.4215C102.909 33.5422 102.622 33.6032 102.283 33.6032V33.6018ZM106.883 33.474V28.6307H107.573V30.7075H107.464C107.464 30.2291 107.528 29.8273 107.654 29.5008C107.787 29.1687 107.986 28.9174 108.253 28.7485C108.519 28.5724 108.855 28.4859 109.259 28.4859H109.296C109.907 28.4859 110.358 28.6761 110.648 29.058C110.945 29.4383 111.092 29.9892 111.092 30.7088V33.4755H110.222V30.5271C110.222 30.1524 110.116 29.8529 109.904 29.6286C109.693 29.3987 109.402 29.2837 109.034 29.2837C108.666 29.2837 108.344 29.4015 108.108 29.6371C107.873 29.8727 107.755 30.1879 107.755 30.581V33.474H106.885H106.883ZM114.999 33.6188C114.364 33.6188 113.87 33.4826 113.519 33.21C113.175 32.9375 112.996 32.5656 112.984 32.0943H113.801C113.813 32.2817 113.907 32.4605 114.082 32.6294C114.263 32.7927 114.569 32.8751 114.997 32.8751C115.385 32.8751 115.68 32.7998 115.886 32.6479C116.092 32.4903 116.193 32.3001 116.193 32.0759C116.193 31.8757 116.118 31.7224 115.966 31.613C115.816 31.4981 115.571 31.4229 115.231 31.386L114.705 31.3321C114.245 31.2838 113.87 31.1474 113.581 30.9247C113.291 30.6947 113.145 30.3738 113.145 29.9637C113.145 29.6556 113.223 29.3915 113.381 29.1744C113.538 28.9501 113.755 28.7812 114.033 28.6661C114.312 28.5455 114.633 28.4845 114.994 28.4845C115.538 28.4845 115.979 28.6051 116.319 28.8478C116.659 29.0892 116.833 29.4497 116.845 29.9266H116.029C116.023 29.7337 115.933 29.5704 115.757 29.4369C115.588 29.2979 115.334 29.2283 114.994 29.2283C114.655 29.2283 114.398 29.2979 114.224 29.4369C114.049 29.5761 113.961 29.7521 113.961 29.9637C113.961 30.1453 114.022 30.2901 114.143 30.3994C114.269 30.5087 114.475 30.5783 114.76 30.6081L115.287 30.662C115.806 30.7159 116.224 30.8621 116.539 31.0978C116.854 31.3277 117.01 31.6542 117.01 32.0772C117.01 32.3796 116.922 32.6493 116.748 32.8849C116.579 33.1149 116.343 33.2966 116.04 33.4287C115.738 33.5564 115.391 33.6188 114.997 33.6188H114.999ZM119.126 33.474V28.3851C119.126 27.8471 119.269 27.451 119.553 27.197C119.836 26.9429 120.253 26.8165 120.804 26.8165H121.404V27.542H120.659C120.436 27.542 120.264 27.6058 120.143 27.7321C120.023 27.8528 119.961 28.0217 119.961 28.2403V33.474H119.126ZM118.455 29.3376V28.6847H121.494V29.3376H118.455ZM125.358 33.6373C124.935 33.6373 124.564 33.5649 124.243 33.4201C123.921 33.2754 123.65 33.0851 123.426 32.848C123.21 32.6067 123.043 32.337 122.928 32.0404C122.819 31.7437 122.765 31.4413 122.765 31.1333V30.97C122.765 30.662 122.822 30.3597 122.937 30.0629C123.052 29.7606 123.221 29.4909 123.445 29.2552C123.669 29.0139 123.94 28.8223 124.261 28.6832C124.581 28.5385 124.948 28.466 125.358 28.466C125.769 28.466 126.135 28.5385 126.455 28.6832C126.776 28.8223 127.049 29.0125 127.272 29.2552C127.496 29.4909 127.665 29.7606 127.78 30.0629C127.894 30.3597 127.951 30.662 127.951 30.97V31.1333C127.951 31.4413 127.894 31.7437 127.78 32.0404C127.67 32.337 127.505 32.6053 127.282 32.848C127.064 33.0837 126.795 33.2739 126.474 33.4201C126.154 33.5649 125.781 33.6373 125.358 33.6373ZM125.358 32.8566C125.721 32.8566 126.03 32.7785 126.284 32.621C126.543 32.4577 126.741 32.2405 126.873 31.968C127.012 31.6953 127.082 31.3902 127.082 31.0523C127.082 30.7145 127.012 30.3994 126.873 30.1268C126.734 29.8543 126.534 29.64 126.274 29.4824C126.019 29.3248 125.714 29.2468 125.358 29.2468C125.002 29.2468 124.703 29.3248 124.442 29.4824C124.182 29.64 123.983 29.8543 123.844 30.1268C123.704 30.3994 123.635 30.7075 123.635 31.0523C123.635 31.3973 123.702 31.6969 123.836 31.968C123.975 32.2405 124.17 32.4577 124.425 32.621C124.685 32.7785 124.996 32.8566 125.358 32.8566ZM129.983 33.474V28.6307H130.673V30.6265H130.636C130.636 29.9196 130.791 29.4015 131.098 29.075C131.413 28.7428 131.883 28.5767 132.504 28.5767H132.667V29.356H132.359C131.876 29.356 131.503 29.4867 131.243 29.7464C130.984 30.0005 130.853 30.3695 130.853 30.8537V33.4755H129.983V33.474ZM134.429 33.474V28.6307H135.119V30.7075H135.01C135.01 30.2362 135.07 29.8372 135.191 29.5093C135.317 29.1772 135.506 28.9231 135.753 28.7471C136.002 28.571 136.316 28.4845 136.697 28.4845H136.734C137.115 28.4845 137.43 28.5724 137.678 28.7471C137.932 28.9217 138.12 29.1758 138.241 29.5093C138.361 29.8358 138.422 30.2348 138.422 30.7075H138.168C138.168 30.2362 138.232 29.8372 138.358 29.5093C138.486 29.1772 138.673 28.9231 138.92 28.7471C139.174 28.571 139.492 28.4845 139.872 28.4845H139.909C140.29 28.4845 140.608 28.5724 140.863 28.7471C141.117 28.9217 141.303 29.1758 141.424 29.5093C141.551 29.8358 141.614 30.2348 141.614 30.7075V33.474H140.744V30.5173C140.744 30.124 140.648 29.8216 140.455 29.6102C140.262 29.393 139.992 29.2837 139.648 29.2837C139.302 29.2837 139.003 29.3987 138.786 29.6286C138.568 29.8529 138.459 30.1666 138.459 30.5726V33.4755H137.589V30.5187C137.589 30.1254 137.493 29.8231 137.298 29.6116C137.104 29.3944 136.835 29.285 136.49 29.285C136.145 29.285 135.846 29.4001 135.628 29.63C135.411 29.8543 135.302 30.168 135.302 30.574V33.4769H134.431L134.429 33.474ZM146.863 33.474V32.0233H146.718V30.3454C146.718 30.0133 146.63 29.762 146.455 29.5931C146.286 29.4242 146.035 29.3391 145.703 29.3391C145.515 29.3391 145.323 29.3418 145.122 29.3475C144.922 29.3532 144.731 29.3603 144.55 29.366C144.368 29.3717 144.211 29.3816 144.078 29.393V28.6307C144.212 28.6179 144.351 28.6094 144.496 28.6037C144.647 28.591 144.801 28.5853 144.959 28.5853C145.116 28.5796 145.267 28.5767 145.412 28.5767C145.907 28.5767 146.313 28.6378 146.627 28.7584C146.942 28.8735 147.175 29.0637 147.326 29.3305C147.476 29.5959 147.553 29.9565 147.553 30.4093V33.4755H146.863V33.474ZM145.275 33.6018C144.912 33.6018 144.598 33.5408 144.331 33.4201C144.071 33.2923 143.868 33.1121 143.724 32.8764C143.584 32.6408 143.515 32.357 143.515 32.0233C143.515 31.6897 143.59 31.3916 143.742 31.1617C143.9 30.9317 144.126 30.76 144.423 30.645C144.719 30.5243 145.076 30.4632 145.493 30.4632H146.808V31.1162H145.457C145.107 31.1162 144.837 31.2015 144.649 31.3703C144.462 31.5393 144.368 31.7579 144.368 32.0233C144.368 32.2888 144.462 32.5045 144.649 32.6677C144.837 32.831 145.107 32.9133 145.457 32.9133C145.663 32.9133 145.858 32.8764 146.046 32.8041C146.233 32.7259 146.388 32.5983 146.509 32.4236C146.637 32.2419 146.706 31.9949 146.718 31.6798L146.953 32.0247C146.923 32.3697 146.839 32.6593 146.699 32.8949C146.566 33.1248 146.378 33.2995 146.137 33.4215C145.901 33.5422 145.614 33.6032 145.275 33.6032V33.6018ZM151.765 33.5294C151.399 33.5294 151.087 33.4783 150.818 33.3746C150.558 33.2725 150.356 33.0964 150.21 32.848C150.071 32.594 150.002 32.2519 150.002 31.8231V27.1601H150.837V31.931C150.837 32.1909 150.908 32.3938 151.045 32.5386C151.192 32.6777 151.393 32.7473 151.654 32.7473H152.508V33.528H151.765V33.5294ZM149.169 29.2837V28.6307H152.508V29.2837H149.169ZM154.7 33.474V28.6307H155.572V33.474H154.7ZM153.956 29.3191V28.6293H155.569V29.3191H153.956ZM154.945 27.85C154.752 27.85 154.606 27.7988 154.51 27.6953C154.419 27.593 154.375 27.4624 154.375 27.3048C154.375 27.1473 154.419 27.0182 154.51 26.9145C154.606 26.8123 154.752 26.7598 154.945 26.7598C155.138 26.7598 155.281 26.8109 155.371 26.9145C155.467 27.0166 155.517 27.1473 155.517 27.3048C155.517 27.4624 155.467 27.5916 155.371 27.6953C155.281 27.7974 155.139 27.85 154.945 27.85ZM159.013 33.474L157.364 28.6307H158.271L159.885 33.474H159.013ZM159.231 33.474V32.7842H160.285V33.474H159.231ZM159.649 33.474L161.054 28.6307H161.908L160.475 33.474H159.649ZM165.742 33.6373C165.319 33.6373 164.954 33.5649 164.645 33.4201C164.335 33.2754 164.086 33.0851 163.892 32.848C163.7 32.6067 163.554 32.337 163.456 32.0404C163.366 31.7437 163.322 31.4413 163.322 31.1333V30.97C163.322 30.6549 163.366 30.3497 163.456 30.0545C163.554 29.7578 163.7 29.4924 163.892 29.2567C164.086 29.0154 164.329 28.8237 164.626 28.6847C164.929 28.5399 165.283 28.4675 165.688 28.4675C166.214 28.4675 166.646 28.5824 166.984 28.8123C167.327 29.0366 167.583 29.3262 167.747 29.6826C167.915 30.0388 168.001 30.4207 168.001 30.8253V31.2156H163.702V30.5626H167.366L167.166 30.9161C167.166 30.5712 167.111 30.2745 167.002 30.0274C166.893 29.7734 166.73 29.5775 166.513 29.4383C166.294 29.2993 166.02 29.2297 165.688 29.2297C165.356 29.2297 165.055 29.3077 164.827 29.4653C164.602 29.6229 164.434 29.8372 164.318 30.1098C164.209 30.3824 164.155 30.6961 164.155 31.0538C164.155 31.4115 164.209 31.7096 164.318 31.9878C164.434 32.2603 164.609 32.4775 164.846 32.6408C165.081 32.7984 165.38 32.8764 165.742 32.8764C166.122 32.8764 166.432 32.7912 166.667 32.6224C166.911 32.4534 167.055 32.2561 167.103 32.0333H167.92C167.852 32.3654 167.719 32.6536 167.521 32.8949C167.32 33.1362 167.071 33.3207 166.768 33.4485C166.468 33.5763 166.126 33.6387 165.743 33.6387L165.742 33.6373Z" fill="#7E7E7E"/>
</g>
</svg>
