<svg width="125" height="35" viewBox="0 0 125 35" fill="none" xmlns="http://www.w3.org/2000/svg">
<g id="fyers">
<path id="Vector" fill-rule="evenodd" clip-rule="evenodd" d="M20.1753 0.6427V34.2248L15.6196 26.8584V16.1338H9.32836L6.29122 11.259H15.6196V7.03413H3.68796L0 0.6427H20.1753ZM41.9776 0.6427L38.2897 7.03413H26.358V11.259H35.5779L32.6493 16.1338H26.358V26.8584L21.8023 34.2248V0.6427H41.9776Z" fill="#7E7E7E"/>
<path id="Vector_2" d="M51.5137 26.7622V18.4829H57.7882V15.3677H51.5137V10.344H59.7015V7.17261H47.5746V26.7622H51.5137ZM71.8937 26.7622V19.9423L78.3582 7.17261H74.0851L70.0037 16.1254L65.895 7.17261H61.5671L68.0589 19.9423V26.7622H71.8937ZM90.485 26.7622V23.5673H83.1605V18.3827H89.6558V15.2719H83.1605V10.3675H90.485V7.17261H79.291V26.7622H90.485ZM98.2193 26.7622V19.1284H100.106L104.51 26.7622H109.142L104.367 18.8197C105.873 18.4268 107.007 17.7111 107.769 16.6727C108.532 15.6343 108.913 14.4696 108.913 13.1786C108.913 12.056 108.641 11.0409 108.098 10.1335C107.555 9.22605 106.74 8.50571 105.653 7.97247C104.567 7.43923 103.252 7.17261 101.708 7.17261H94.2164V26.7622H98.2193ZM101.728 15.5681H98.8806V9.97112H101.728C102.652 9.97112 103.342 10.2123 103.796 10.6946C104.25 11.177 104.478 11.855 104.478 12.7287C104.478 13.6206 104.25 14.3168 103.796 14.8173C103.342 15.3179 102.652 15.5681 101.728 15.5681ZM118.17 26.7622C119.589 26.7622 120.815 26.5019 121.847 25.9813C122.88 25.4608 123.663 24.7621 124.198 23.8854C124.733 23.0086 125 22.0588 125 21.036C125 19.8487 124.714 18.8898 124.143 18.1592C123.571 17.4286 122.889 16.8806 122.096 16.5153C121.304 16.15 120.28 15.7847 119.027 15.4194C118.105 15.1454 117.391 14.9034 116.884 14.6934C116.377 14.4833 115.953 14.2093 115.612 13.8714C115.271 13.5335 115.1 13.1088 115.1 12.5974C115.1 11.8668 115.326 11.3097 115.778 10.9261C116.229 10.5426 116.833 10.3508 117.589 10.3508C118.455 10.3508 119.151 10.5654 119.677 10.9946C120.202 11.4239 120.483 11.9673 120.52 12.6248H124.779C124.65 10.9079 123.963 9.56993 122.719 8.611C121.474 7.65207 119.856 7.17261 117.865 7.17261C116.538 7.17261 115.358 7.39636 114.326 7.84386C113.293 8.29136 112.491 8.93521 111.92 9.77541C111.348 10.6156 111.063 11.6019 111.063 12.7344C111.063 13.9399 111.344 14.9034 111.906 15.6249C112.468 16.3464 113.141 16.8852 113.925 17.2414C114.708 17.5975 115.727 17.9583 116.981 18.3236C117.902 18.5793 118.626 18.8122 119.151 19.0222C119.677 19.2323 120.115 19.52 120.465 19.8853C120.815 20.2506 120.99 20.7163 120.99 21.2826C120.99 21.9766 120.732 22.5383 120.216 22.9675C119.7 23.3968 118.99 23.6114 118.087 23.6114C117.202 23.6114 116.506 23.3831 115.999 22.9264C115.492 22.4698 115.211 21.8488 115.155 21.0634H111.007C111.026 22.2324 111.348 23.2461 111.975 24.1046C112.602 24.963 113.455 25.6206 114.533 26.0772C115.612 26.5338 116.824 26.7622 118.17 26.7622Z" fill="#7E7E7E"/>
</g>
</svg>
