<svg width="49" height="43" viewBox="0 0 49 43" fill="none" xmlns="http://www.w3.org/2000/svg">
<g id="kevit" clip-path="url(#clip0_180_6270)">
<path id="Subtraction 1" d="M13.6665 42.4916C12.8833 42.4931 12.1018 42.4192 11.3329 42.271C10.6349 42.1348 9.95155 41.9326 9.29192 41.667C8.67841 41.4187 8.0877 41.1175 7.52647 40.7667C6.99701 40.4349 6.49316 40.0639 6.01915 39.6568C5.05783 38.8332 4.18178 37.6937 3.41566 36.2702C2.68924 34.9207 2.06527 33.3233 1.5612 31.5236C1.05384 29.6782 0.688863 27.7966 0.469474 25.8954C0.232661 23.8941 0.127461 21.8793 0.154552 19.8642C0.204221 16.0011 0.727073 12.3352 1.66659 9.26397C2.16096 7.6477 2.76597 6.21551 3.46462 5.00709C4.20172 3.73254 5.04546 2.70411 5.97233 1.95045C6.43603 1.57546 6.95217 1.27044 7.50431 1.04511C8.11877 0.795963 8.75923 0.616493 9.41369 0.510066L10.8676 0.376638C10.9489 0.375391 11.0314 0.375391 11.1126 0.375391C12.7623 0.372941 14.4073 0.549293 16.0189 0.901359C17.4475 1.22158 18.8507 1.64578 20.2173 2.17057C21.7734 2.75199 23.2998 3.40391 24.7543 4.10737C26.1705 4.79276 27.5717 5.55229 28.9188 6.36594L28.309 6.97442L27.41 7.87157L13.9019 21.3505L14.7079 22.1652L15.3441 22.8082L21.3175 28.8464L24.4926 28.8299L24.8918 28.8279L25.1722 28.8264V28.813L18.1607 21.7889L17.8304 21.4581L17.7366 21.3643C17.7343 21.3577 17.7321 21.3509 17.73 21.3442L27.7619 11.3374L27.7713 11.3281L31.2493 7.85946C31.6944 8.1613 32.1423 8.47533 32.5816 8.79283C33.3199 9.32637 34.012 9.87361 34.6974 10.4657C35.3677 11.0443 36.0543 11.6864 36.7965 12.4274C37.2957 12.9266 37.7681 13.4519 38.2118 14.001C38.746 14.658 39.2327 15.3522 39.6681 16.0785C40.7273 17.8595 41.2647 19.5704 41.2647 21.1636C41.2643 21.7599 41.2105 22.3549 41.1039 22.9415C40.9998 23.5101 40.85 24.0693 40.6562 24.6139C40.4645 25.1508 40.2363 25.674 39.9732 26.1798C39.7118 26.6817 39.4225 27.1686 39.1068 27.6383C37.8195 29.56 36.1516 31.1822 34.8424 32.3807C33.4493 33.6562 32.2802 34.6646 31.1633 35.5545C29.9759 36.5098 28.732 37.3928 27.4384 38.1987L19.9216 30.698L10.6807 21.4772L10.6741 21.4572L13.1681 18.9565L13.4529 18.6712L18.1166 13.9941L14.4277 13.9623L14.262 13.9609L6.84607 21.4434L11.8427 26.4467L11.8811 26.4852L23.4805 38.0677L24.0042 38.5906L24.9785 39.5634C23.5966 40.2449 22.1607 40.8108 20.6855 41.2554C19.0485 41.7462 17.3761 42.1102 15.6831 42.3442C15.0152 42.4408 14.3413 42.49 13.6665 42.4916ZM34.5097 17.8281L36.9695 25.0305L39.436 17.8281H38.3129L36.9694 22.0959L35.6296 17.8281H34.5097ZM23.9156 17.8281V24.8466H24.9551V21.5766L27.7468 24.8466H29.0667L26.0632 21.3348L29.0667 17.8277H27.7467L24.9552 21.1026V17.8278H23.9156V17.8281ZM29.9672 17.8281V24.8466H33.2339V23.8839H31.0264V21.8227H33.1805V20.8658H31.0264V18.7984H33.2339V17.8282H29.9672V17.8281Z" fill="#7E7E7E"/>
<path id="I" d="M42.9584 17.8284H41.9026V24.8469H42.9584V17.8284Z" fill="#7E7E7E"/>
<path id="T" d="M44.651 17.8285H49V18.7995H47.359V24.8488H46.29V18.8001H44.651V17.8285Z" fill="#7E7E7E"/>
</g>
<defs>
<clipPath id="clip0_180_6270">
<rect width="48.8499" height="42.1162" fill="white" transform="translate(0.150146 0.37561)"/>
</clipPath>
</defs>
</svg>
