<svg width="54" height="47" viewBox="0 0 54 47" fill="none" xmlns="http://www.w3.org/2000/svg">
<g clip-path="url(#clip0_116_4464)">
<mask id="mask0_116_4464" style="mask-type:luminance" maskUnits="userSpaceOnUse" x="0" y="0" width="54" height="47">
<path d="M53.2294 0.975586H0.0750732V46.9541H53.2294V0.975586Z" fill="#7E7E7E"/>
</mask>
<g mask="url(#mask0_116_4464)">
<mask id="mask1_116_4464" style="mask-type:luminance" maskUnits="userSpaceOnUse" x="0" y="0" width="54" height="47">
<path d="M53.2294 0.975586H0.0750732V46.8029H53.2294V0.975586Z" fill="#7E7E7E"/>
</mask>
<g mask="url(#mask1_116_4464)">
<path d="M14.7822 46.8029C13.93 46.8048 13.0797 46.7242 12.243 46.5629C11.4835 46.4149 10.7399 46.1948 10.0221 45.9057C9.35458 45.6356 8.71186 45.3077 8.10109 44.926C7.52504 44.5652 6.97674 44.1614 6.46098 43.7183C5.41496 42.8222 4.46169 41.5824 3.62807 40.0334C2.83764 38.5651 2.15868 36.8269 1.6102 34.8684C1.05814 32.8605 0.660995 30.813 0.422275 28.7442C0.164593 26.5667 0.0501228 24.3744 0.0796017 22.1818C0.133647 17.9782 0.702571 13.9894 1.72487 10.6475C2.26281 8.88878 2.92112 7.33034 3.68133 6.01544C4.48341 4.6286 5.40148 3.50953 6.41006 2.68946C6.91461 2.28143 7.47618 1.94954 8.07701 1.70435C8.74565 1.43325 9.44251 1.23796 10.1546 1.12215L11.7367 0.976969C11.8251 0.975613 11.9148 0.975613 12.0033 0.975613C13.7983 0.972947 15.5883 1.16484 17.342 1.54793C18.8963 1.89636 20.4232 2.35794 21.9103 2.92898C23.6034 3.56163 25.2644 4.271 26.8471 5.03645C28.388 5.78223 29.9127 6.60869 31.3785 7.49402L30.7149 8.15611L29.7368 9.13235L15.0384 23.799L15.9154 24.6855L16.6076 25.3851L23.1074 31.9553L26.5622 31.9375L26.9967 31.9354L27.3018 31.9338V31.9192L19.6723 24.2761L19.313 23.9161L19.2109 23.814C19.2084 23.8068 19.206 23.7995 19.2038 23.7922L30.1198 12.9036L30.1299 12.8935L33.9145 9.11919C34.3988 9.44759 34.8859 9.78933 35.364 10.1348C36.1674 10.7153 36.9203 11.3108 37.6664 11.955C38.3957 12.5847 39.1428 13.2834 39.9504 14.0896C40.4934 14.6328 41.0077 15.2044 41.4903 15.8018C42.0715 16.5167 42.6013 17.2722 43.0751 18.0624C44.2275 20.0004 44.8122 21.862 44.8122 23.5957C44.8119 24.2445 44.7532 24.8919 44.6373 25.5302C44.5241 26.1489 44.3612 26.7574 44.1502 27.3499C43.9415 27.9342 43.6933 28.5035 43.4071 29.0538C43.1227 29.6 42.8078 30.1297 42.4641 30.6408C41.0635 32.7319 39.2485 34.4971 37.824 35.8012C36.3083 37.1892 35.0361 38.2863 33.8209 39.2547C32.5288 40.2941 31.1752 41.2549 29.7677 42.1317L21.5884 33.9701L11.5333 23.9369L11.5261 23.9151L14.2399 21.1941L14.5498 20.8836L19.6244 15.7944L15.6104 15.7598L15.4302 15.7583L7.36072 23.9001L12.7977 29.3444L12.8395 29.3861L25.461 41.9893L26.0308 42.5583L27.0911 43.6168C25.5873 44.3584 24.025 44.9741 22.4198 45.4578C20.6385 45.992 18.8186 46.388 16.9765 46.6426C16.2498 46.7476 15.5165 46.8013 14.7822 46.8029ZM37.462 19.9662L40.1386 27.8032L42.8224 19.9662H41.6003L40.1383 24.6101L38.6806 19.9662H37.462ZM25.9344 19.9662V27.603H27.0655V24.045L30.1033 27.6033H31.5393L28.2714 23.7819L31.5393 19.9658H30.103L27.0655 23.5292V19.9659L25.9344 19.9662ZM32.5192 19.9662V27.603H36.0739V26.5556H33.6719V24.3128H36.0156V23.2716H33.6719V21.022H36.0739V19.9663L32.5192 19.9662Z" fill="#7E7E7E"/>
<path d="M46.6556 19.9666H45.5067V27.6035H46.6556V19.9666Z" fill="#7E7E7E"/>
<path d="M48.4971 19.9666H53.2294V21.023H51.4437V27.6054H50.2806V21.0238H48.4971V19.9666Z" fill="#7E7E7E"/>
</g>
</g>
</g>
<defs>
<clipPath id="clip0_116_4464">
<rect width="53.4501" height="45.9786" fill="white" transform="translate(0.0750732 0.975586)"/>
</clipPath>
</defs>
</svg>
