<?xml version="1.0" encoding="UTF-8"?>
<svg width="24px" height="24px" viewBox="0 0 24 24" version="1.1" xmlns="http://www.w3.org/2000/svg">
    <g stroke="none" stroke-width="1" fill="none" fill-rule="evenodd">
        <path d="M9.583 7.667c-.833 0-1.517.683-1.517 1.516 0 .834.684 1.517 1.517 1.517.833 0 1.516-.683 1.516-1.517 0-.833-.683-1.516-1.516-1.516zm0 5.666C7.075 13.333 5 11.258 5 8.75 5 6.242 7.075 4.167 9.583 4.167c2.509 0 4.584 2.075 4.584 4.583 0 2.508-2.075 4.583-4.584 4.583z" fill="currentColor" fill-rule="nonzero"/>
        <path d="M15.917 7.667c-.834 0-1.517.683-1.517 1.516 0 .834.683 1.517 1.517 1.517.833 0 1.516-.683 1.516-1.517 0-.833-.683-1.516-1.516-1.516zm0 5.666c-2.508 0-4.584-2.075-4.584-4.583 0-2.508 2.076-4.583 4.584-4.583 2.508 0 4.583 2.075 4.583 4.583 0 2.508-2.075 4.583-4.583 4.583z" fill="currentColor" fill-rule="nonzero"/>
    </g>
</svg> 