<svg width="117" height="25" viewBox="0 0 117 25" fill="none" xmlns="http://www.w3.org/2000/svg">
<g id="dhruv">
<mask id="mask0_115_106" style="mask-type:luminance" maskUnits="userSpaceOnUse" x="-1" y="0" width="118" height="25">
<g id="Group">
<path id="Vector" d="M116.075 0.409912H-0.00012207V24.4575H116.075V0.409912Z" fill="#7E7E7E"/>
</g>
</mask>
<g mask="url(#mask0_115_106)">
<g id="Group_2">
<path id="Vector_2" d="M28.3727 0.409912H15.4216L24.7138 12.2345L15.4216 24.0591H28.3727L37.6638 12.2345L28.3727 0.409912Z" fill="#7E7E7E"/>
<path id="Vector_3" d="M18.6292 12.209C18.6292 5.87821 13.5838 0.584568 7.29423 0.409912H-0.00012207V24.0581H7.29423C13.5838 23.8835 18.6292 18.5407 18.6292 12.209Z" fill="#7E7E7E"/>
<path id="Vector_4" d="M42.3834 0.458374H49.0792C53.7724 0.458374 56.9887 3.18909 56.9887 7.53881C56.9887 11.8885 53.7724 14.6192 49.0792 14.6192H42.3834V0.458374ZM48.9171 11.4224C51.3249 11.4224 52.9421 9.98598 52.9421 7.53881C52.9421 5.09167 51.3231 3.65516 48.9171 3.65516H46.3885V11.4235H48.9171V11.4224Z" fill="#7E7E7E"/>
<path id="Vector_5" d="M71.3352 0.458374V14.6183H67.3298V9.09598H61.8683V14.6183H57.8632V0.458374H61.8683V5.7785H67.3298V0.458374H71.3352Z" fill="#7E7E7E"/>
<path id="Vector_6" d="M78.6802 10.8553H76.4961V14.6183H72.491V0.458374H78.964C82.8281 0.458374 85.2554 2.46102 85.2554 5.69707C85.2554 7.78019 84.2439 9.31875 82.4836 10.1675L85.5383 14.6173H81.2491L78.6802 10.8543V10.8553ZM78.7214 3.61395H76.4961V7.76056H78.7214C80.3801 7.76056 81.2097 6.99128 81.2097 5.69707C81.2097 4.40286 80.3801 3.61395 78.7214 3.61395Z" fill="#7E7E7E"/>
<path id="Vector_7" d="M86.0147 8.02292V0.506836H90.0201V7.90223C90.0201 10.3298 91.0316 11.3011 92.711 11.3011C94.3896 11.3011 95.3803 10.3298 95.3803 7.90223V0.506836H99.325V8.02391C99.325 12.252 96.8577 14.6187 92.6693 14.6187C88.482 14.6187 86.0138 12.252 86.0138 8.02391L86.0147 8.02292Z" fill="#7E7E7E"/>
<path id="Vector_8" d="M116.076 0.458374L110.007 14.6183H106.062L100.013 0.458374H104.343L108.186 9.68274L112.111 0.458374H116.076Z" fill="#7E7E7E"/>
<path id="Vector_9" d="M43.9024 23.1539V19.0034H44.5165V23.1539H43.9024ZM42.51 19.129V18.5776H45.9079V19.129H42.51ZM46.9588 23.1539V19.806H47.4356V21.1856H47.4103C47.4103 20.697 47.517 20.3388 47.7301 20.1132C47.9469 19.8835 48.2715 19.7688 48.7014 19.7688H48.8144V20.3074H48.6013C48.2667 20.3074 48.0097 20.3978 47.8302 20.5773C47.6505 20.7529 47.5603 21.008 47.5603 21.3427V23.155H46.9588V23.1539ZM51.1918 23.254C50.7944 23.254 50.4893 23.1245 50.2762 22.8654C50.0633 22.6064 49.9563 22.2326 49.9563 21.743V19.7992H50.5578V21.8617C50.5578 22.1247 50.6285 22.3317 50.7709 22.4828C50.9131 22.629 51.1055 22.7026 51.3478 22.7026C51.5901 22.7026 51.8029 22.6231 51.9619 22.4642C52.1209 22.3013 52.2006 22.0796 52.2006 21.7999V19.8002H52.8021V23.155H52.325V21.7194H52.4005C52.4005 22.0491 52.3563 22.3297 52.2691 22.5593C52.1816 22.785 52.0494 22.9587 51.8738 23.0794C51.7019 23.1962 51.4831 23.255 51.2152 23.255H51.1897L51.1918 23.254ZM54.5082 23.1539V18.5765H55.1097V23.1539H54.5082ZM54.0441 19.0535V18.5765H55.1097V19.0535H54.0441ZM56.5403 24.4579V23.9183H57.023C57.1655 23.9183 57.2842 23.8997 57.3804 23.8624C57.4802 23.829 57.5617 23.7702 57.6245 23.6867C57.6912 23.6034 57.7462 23.4924 57.7874 23.3541L58.8413 19.8051H59.4311L58.3153 23.5111C58.2485 23.7328 58.1545 23.9125 58.0327 24.0498C57.9122 24.1921 57.7631 24.2941 57.5872 24.3569C57.4156 24.4236 57.2154 24.457 56.9857 24.457H56.5403V24.4579ZM57.5626 23.0784V22.577H58.2897V23.0784H57.5626ZM57.5001 23.0784L56.3028 19.8051H56.9172L58.0643 23.0784H57.5001ZM63.603 23.1539V19.0034H64.2174V23.1539H63.603ZM62.2107 19.129V18.5776H65.6086V19.129H62.2107ZM66.6595 23.1539V19.806H67.1365V21.1856H67.111C67.111 20.697 67.218 20.3388 67.4308 20.1132C67.6487 19.8835 67.9725 19.7688 68.4032 19.7688H68.5159V20.3074H68.3031C67.9686 20.3074 67.7116 20.3978 67.5318 20.5773C67.3523 20.7529 67.2622 21.008 67.2622 21.3427V23.155H66.6607L66.6595 23.1539ZM71.7461 23.1539V22.1512H71.646V20.9913C71.646 20.7617 71.5853 20.5881 71.4645 20.4713C71.3479 20.3546 71.1741 20.2957 70.9445 20.2957C70.8149 20.2957 70.6814 20.2976 70.5432 20.3016C70.4049 20.3055 70.2735 20.3104 70.1479 20.3143C70.0222 20.3182 69.9134 20.3251 69.822 20.333V19.806C69.9143 19.7972 70.0105 19.7914 70.1106 19.7874C70.2146 19.7786 70.3216 19.7747 70.4304 19.7747C70.5393 19.7707 70.6433 19.7688 70.7434 19.7688C71.0857 19.7688 71.3665 19.811 71.5832 19.8944C71.8011 19.9739 71.962 20.1053 72.066 20.2898C72.17 20.4733 72.2232 20.7225 72.2232 21.0355V23.155H71.7461V23.1539ZM70.6493 23.2423C70.398 23.2423 70.1812 23.2001 69.9967 23.1167C69.8172 23.0283 69.6768 22.9038 69.5767 22.7409C69.4806 22.578 69.4325 22.3818 69.4325 22.1512C69.4325 21.9205 69.4845 21.7145 69.5894 21.5556C69.6985 21.3966 69.8554 21.2779 70.0595 21.1984C70.2645 21.115 70.5107 21.0728 70.7993 21.0728H71.7089V21.5241H70.7749C70.5323 21.5241 70.346 21.5831 70.2164 21.6998C70.0869 21.8166 70.0222 21.9677 70.0222 22.1512C70.0222 22.3346 70.0869 22.4838 70.2164 22.5966C70.346 22.7094 70.5323 22.7664 70.7749 22.7664C70.9171 22.7664 71.0524 22.7409 71.1819 22.6908C71.3115 22.6368 71.4185 22.5486 71.5018 22.4279C71.5901 22.3022 71.6373 22.1315 71.646 21.9137L71.809 22.1521C71.7885 22.3906 71.7296 22.5907 71.6334 22.7536C71.5411 22.9126 71.4116 23.0333 71.2447 23.1176C71.0818 23.2011 70.8837 23.2432 70.6493 23.2432V23.2423ZM73.8293 23.1539V19.806H74.3063V21.2416H74.2306C74.2306 20.9109 74.2747 20.6332 74.3622 20.4075C74.4542 20.178 74.5916 20.0042 74.7761 19.8875C74.9598 19.7658 75.1922 19.706 75.4717 19.706H75.4973C75.9193 19.706 76.2313 19.8374 76.4315 20.1014C76.6365 20.3643 76.7387 20.7451 76.7387 21.2425V23.155H76.1372V21.1169C76.1372 20.8579 76.0636 20.6509 75.9175 20.4959C75.7711 20.3369 75.57 20.2574 75.3157 20.2574C75.0617 20.2574 74.839 20.3388 74.676 20.5017C74.5131 20.6646 74.4317 20.8825 74.4317 21.1542V23.1539H73.8302H73.8293ZM79.439 23.254C79.0004 23.254 78.6589 23.1599 78.4163 22.9714C78.178 22.783 78.0544 22.526 78.0466 22.2002H78.6108C78.6195 22.3297 78.6845 22.4533 78.805 22.5701C78.9306 22.683 79.1417 22.7399 79.438 22.7399C79.7059 22.7399 79.91 22.6879 80.0522 22.5829C80.1943 22.4739 80.2647 22.3425 80.2647 22.1875C80.2647 22.0491 80.2127 21.9431 80.1078 21.8675C80.0041 21.7881 79.8342 21.7361 79.5998 21.7106L79.2357 21.6733C78.9177 21.64 78.6589 21.5457 78.4587 21.3917C78.2585 21.2328 78.1575 21.011 78.1575 20.7274C78.1575 20.5145 78.2113 20.332 78.3204 20.1819C78.4293 20.0269 78.5793 19.9101 78.7716 19.8306C78.964 19.7472 79.1859 19.705 79.4359 19.705C79.8117 19.705 80.1165 19.7884 80.3513 19.9562C80.5863 20.123 80.7066 20.3722 80.7153 20.7019H80.1511C80.1469 20.5685 80.0846 20.4556 79.9629 20.3634C79.846 20.2673 79.6704 20.2192 79.4359 20.2192C79.2015 20.2192 79.0238 20.2673 78.9033 20.3634C78.7825 20.4596 78.7217 20.5812 78.7217 20.7274C78.7217 20.853 78.7638 20.9531 78.8471 21.0287C78.9346 21.1042 79.0767 21.1523 79.2739 21.1729L79.6379 21.2102C79.9972 21.2474 80.2857 21.3485 80.5037 21.5114C80.7216 21.6704 80.8292 21.896 80.8292 22.1884C80.8292 22.3975 80.7682 22.5838 80.648 22.7467C80.531 22.9057 80.3681 23.0313 80.1589 23.1226C79.9503 23.2108 79.7098 23.254 79.438 23.254H79.439ZM82.2919 23.1539V19.6363C82.2919 19.2644 82.3905 18.9906 82.5871 18.815C82.7825 18.6394 83.071 18.552 83.4519 18.552H83.8664V19.0535H83.3518C83.197 19.0535 83.0783 19.0976 82.995 19.1849C82.9117 19.2683 82.869 19.3851 82.869 19.5362V23.1539H82.2919ZM81.8278 20.2947V19.8434H83.9289V20.2947H81.8278ZM86.5997 23.2668C86.3072 23.2668 86.0505 23.2168 85.8287 23.1167C85.6066 23.0166 85.419 22.8851 85.2642 22.7212C85.1145 22.5544 84.9997 22.368 84.9197 22.1629C84.8442 21.9579 84.8073 21.7488 84.8073 21.5359V21.4231C84.8073 21.2102 84.8467 21.0012 84.926 20.7961C85.0054 20.5871 85.1223 20.4006 85.2771 20.2378C85.4319 20.071 85.6195 19.9385 85.8413 19.8423C86.0626 19.7423 86.316 19.6922 86.5997 19.6922C86.8835 19.6922 87.1369 19.7423 87.3581 19.8423C87.58 19.9385 87.7684 20.07 87.9223 20.2378C88.0777 20.4006 88.1941 20.5871 88.2734 20.7961C88.3528 21.0012 88.3922 21.2102 88.3922 21.4231V21.5359C88.3922 21.7488 88.3528 21.9579 88.2734 22.1629C88.198 22.368 88.0835 22.5535 87.9296 22.7212C87.779 22.8841 87.5929 23.0156 87.3707 23.1167C87.1495 23.2168 86.8922 23.2668 86.5997 23.2668ZM86.5997 22.7272C86.8507 22.7272 87.0638 22.6731 87.2394 22.5643C87.4188 22.4514 87.5553 22.3013 87.6467 22.1129C87.7429 21.9244 87.791 21.7135 87.791 21.48C87.791 21.2465 87.7429 21.0287 87.6467 20.8402C87.5505 20.6518 87.4125 20.5037 87.2331 20.3948C87.0566 20.2858 86.8459 20.2319 86.5997 20.2319C86.3535 20.2319 86.1467 20.2858 85.9664 20.3948C85.7869 20.5037 85.6489 20.6518 85.5527 20.8402C85.4566 21.0287 85.4085 21.2416 85.4085 21.48C85.4085 21.7184 85.4551 21.9255 85.5473 22.1129C85.6435 22.3013 85.7782 22.4514 85.9543 22.5643C86.1341 22.6731 86.3496 22.7272 86.5997 22.7272ZM89.7965 23.1539V19.806H90.2733V21.1856H90.2477C90.2477 20.697 90.3551 20.3388 90.5676 20.1132C90.7849 19.8835 91.1095 19.7688 91.5391 19.7688H91.6521V20.3074H91.439C91.1047 20.3074 90.8474 20.3978 90.6677 20.5773C90.4882 20.7529 90.3977 21.008 90.3977 21.3427V23.155H89.7965V23.1539ZM92.8698 23.1539V19.806H93.3466V21.2416H93.2714C93.2714 20.9158 93.3129 20.6401 93.3965 20.4134C93.4836 20.1838 93.6144 20.0082 93.7851 19.8865C93.9568 19.7648 94.1738 19.705 94.4377 19.705H94.4633C94.7263 19.705 94.9442 19.7658 95.1159 19.8865C95.2914 20.0072 95.4213 20.1829 95.5045 20.4134C95.5878 20.6391 95.6296 20.9149 95.6296 21.2416H95.454C95.454 20.9158 95.4982 20.6401 95.5854 20.4134C95.6738 20.1838 95.8036 20.0082 95.9744 19.8865C96.1499 19.7648 96.3693 19.705 96.6324 19.705H96.6579C96.9209 19.705 97.1407 19.7658 97.3168 19.8865C97.4924 20.0072 97.6216 20.1829 97.7049 20.4134C97.793 20.6391 97.8362 20.9149 97.8362 21.2416V23.1539H97.2351V21.1101C97.2351 20.8383 97.1686 20.6292 97.0349 20.4831C96.9017 20.333 96.715 20.2574 96.477 20.2574C96.238 20.2574 96.0312 20.3369 95.8812 20.4959C95.7306 20.6509 95.6551 20.8677 95.6551 21.1484V23.155H95.0539V21.1111C95.0539 20.8393 94.9875 20.6303 94.8528 20.4841C94.7191 20.3339 94.533 20.2584 94.294 20.2584C94.056 20.2584 93.8492 20.3379 93.6986 20.4968C93.5486 20.6518 93.4734 20.8687 93.4734 21.1493V23.1559H92.8713L92.8698 23.1539ZM101.464 23.1539V22.1512H101.364V20.9913C101.364 20.7617 101.303 20.5881 101.182 20.4713C101.066 20.3546 100.892 20.2957 100.663 20.2957C100.533 20.2957 100.4 20.2976 100.261 20.3016C100.123 20.3055 99.9909 20.3104 99.8659 20.3143C99.7402 20.3182 99.6311 20.3251 99.5397 20.333V19.806C99.632 19.7972 99.7282 19.7914 99.8283 19.7874C99.9326 19.7786 100.039 19.7747 100.148 19.7747C100.257 19.7707 100.361 19.7688 100.462 19.7688C100.804 19.7688 101.084 19.811 101.301 19.8944C101.519 19.9739 101.68 20.1053 101.784 20.2898C101.888 20.4733 101.941 20.7225 101.941 21.0355V23.155H101.464V23.1539ZM100.367 23.2423C100.116 23.2423 99.8989 23.2001 99.7144 23.1167C99.5349 23.0283 99.3945 22.9038 99.2944 22.7409C99.1982 22.578 99.1501 22.3818 99.1501 22.1512C99.1501 21.9205 99.2021 21.7145 99.3074 21.5556C99.4162 21.3966 99.5725 21.2779 99.7778 21.1984C99.9822 21.115 100.229 21.0728 100.518 21.0728H101.427V21.5241H100.493C100.251 21.5241 100.064 21.5831 99.9341 21.6998C99.8051 21.8166 99.7402 21.9677 99.7402 22.1512C99.7402 22.3346 99.8051 22.4838 99.9341 22.5966C100.064 22.7094 100.251 22.7664 100.493 22.7664C100.635 22.7664 100.77 22.7409 100.9 22.6908C101.029 22.6368 101.136 22.5486 101.22 22.4279C101.308 22.3022 101.356 22.1315 101.364 21.9137L101.527 22.1521C101.506 22.3906 101.448 22.5907 101.351 22.7536C101.259 22.9126 101.129 23.0333 100.962 23.1176C100.8 23.2011 100.601 23.2432 100.367 23.2432V23.2423ZM104.853 23.1922C104.6 23.1922 104.384 23.1569 104.199 23.0852C104.019 23.0146 103.879 22.8929 103.778 22.7212C103.682 22.5456 103.634 22.3091 103.634 22.0128V18.7895H104.211V22.0873C104.211 22.267 104.26 22.4073 104.356 22.5074C104.457 22.6035 104.596 22.6516 104.776 22.6516H105.366V23.1912H104.853V23.1922ZM103.059 20.2574V19.806H105.366V20.2574H103.059ZM106.881 23.1539V19.806H107.484V23.1539H106.881ZM106.368 20.2819V19.8051H107.483V20.2819H106.368ZM107.051 19.2664C106.918 19.2664 106.817 19.2311 106.75 19.1595C106.688 19.0888 106.657 18.9985 106.657 18.8896C106.657 18.7807 106.688 18.6914 106.75 18.6198C106.817 18.5491 106.918 18.5128 107.051 18.5128C107.184 18.5128 107.283 18.5482 107.346 18.6198C107.412 18.6904 107.447 18.7807 107.447 18.8896C107.447 18.9985 107.412 19.0878 107.346 19.1595C107.283 19.2301 107.185 19.2664 107.051 19.2664ZM109.863 23.1539L108.723 19.806H109.35L110.466 23.1539H109.863ZM110.014 23.1539V22.6771H110.742V23.1539H110.014ZM110.303 23.1539L111.274 19.806H111.864L110.873 23.1539H110.303ZM114.514 23.2668C114.222 23.2668 113.97 23.2168 113.756 23.1167C113.542 23.0166 113.369 22.8851 113.236 22.7212C113.103 22.5544 113.002 22.368 112.934 22.1629C112.872 21.9579 112.841 21.7488 112.841 21.5359V21.4231C112.841 21.2053 112.872 20.9943 112.934 20.7902C113.002 20.5852 113.103 20.4017 113.236 20.2388C113.369 20.072 113.538 19.9395 113.743 19.8434C113.952 19.7433 114.197 19.6933 114.477 19.6933C114.84 19.6933 115.139 19.7727 115.373 19.9316C115.61 20.0867 115.787 20.2868 115.9 20.5331C116.016 20.7794 116.076 21.0433 116.076 21.323V21.5928H113.104V21.1415H115.637L115.499 21.3858C115.499 21.1474 115.461 20.9423 115.386 20.7715C115.31 20.5959 115.197 20.4605 115.047 20.3643C114.896 20.2682 114.707 20.2201 114.477 20.2201C114.247 20.2201 114.039 20.2741 113.882 20.383C113.726 20.4919 113.61 20.6401 113.53 20.8284C113.455 21.0169 113.418 21.2337 113.418 21.481C113.418 21.7282 113.455 21.9343 113.53 22.1266C113.61 22.315 113.731 22.4651 113.895 22.578C114.057 22.6869 114.264 22.7409 114.514 22.7409C114.777 22.7409 114.991 22.6819 115.154 22.5653C115.322 22.4484 115.422 22.3121 115.455 22.158H116.02C115.973 22.3876 115.881 22.5868 115.744 22.7536C115.605 22.9204 115.433 23.0479 115.224 23.1363C115.016 23.2246 114.78 23.2677 114.515 23.2677L114.514 23.2668Z" fill="#7E7E7E"/>
</g>
</g>
</g>
</svg>
